<svg id="Layer_1_1_" enable-background="new 0 0 64 64" width="1126.81" height="633.59" viewBox="0 0 64 64" xmlns="http://www.w3.org/2000/svg"><path d="m23 50-21-11 3 7-3 4 3 4-3 7z"/><path d="m47 8c5.52283 0 10 4.47711 10 10 0 5.52283-4.47717 10-10 10-5.18524 0-9.44763-3.94678-9.94952-9h-5c.51684 7.8158 7.0028 14 14.94952 14 8.2843 0 15-6.71576 15-15 0-8.2843-6.7157-15-15-15-7.94672 0-14.43268 6.18414-14.94952 14h5c.50189-5.05328 4.76428-9 9.94952-9z"/><path d="m44.29297 15.70703 1.41406-1.41406 3.70703 3.70703-3.70703 3.70703-1.41406-1.41406 1.29297-1.29297h-3.48517c.46338 2.28217 2.48035 4 4.89923 4 2.76141 0 5-2.23859 5-5s-2.23859-5-5-5c-2.41888 0-4.43585 1.71783-4.89923 4h3.48517z"/><path d="m42 18c0-.34253.03516-.67682.10077-1h-5.05029c-.03266.32898-.05048.66241-.05048 1s.01782.67102.05048 1h5.05029c-.06561-.32318-.10077-.65747-.10077-1z"/><path d="m24.29297 21.70703 2.70703-2.70703h5.05048c-.02198-.33203-.05048-.66241-.05048-1s.0285-.66797.05048-1h-5.05048l-2.70703-2.70703-1.41406 1.41406 1.29297 1.29297h-4.08594c-5.79004 0-10.5 4.71045-10.5 10.5s4.70996 10.5 10.5 10.5h11.08594l2.70703 2.70703 1.41406-1.41406-1.29297-1.29297h20.5c3.03223 0 5.5 2.46729 5.5 5.5s-2.46777 5.5-5.5 5.5h-10.5l-2.70703-2.70703-1.41406 1.41406 1.29297 1.29297h-16.17188v2h16.17188l-1.29297 1.29297 1.41406 1.41406 2.70703-2.70703h10.5c4.13574 0 7.5-3.36426 7.5-7.5s-3.36426-7.5-7.5-7.5h-20.5l1.29297-1.29297-1.41406-1.41406-2.70703 2.70703h-11.08594c-4.68652 0-8.5-3.81299-8.5-8.5s3.81348-8.5 8.5-8.5h4.08594l-1.29297 1.29297z"/></svg>