<svg viewBox="0 0 64 64" width="1126.81" height="633.59" xmlns="http://www.w3.org/2000/svg"><path d="m4 43a13.013 13.013 0 0 0 4.4 9.75l1.325-1.5a11 11 0 0 1 7.275-19.25v-2a13.015 13.015 0 0 0 -13 13z"/><path d="m58 43a11.008 11.008 0 0 1 -3.725 8.25l1.325 1.5a13 13 0 0 0 -8.6-22.75v2a11.013 11.013 0 0 1 11 11z"/><path d="m23 49a9 9 0 1 0 9-9 9.01 9.01 0 0 0 -9 9zm16 0a7 7 0 1 1 -7-7 7.009 7.009 0 0 1 7 7z"/><path d="m27.4 46.8 4.267 3.2h5.333v-2h-4.667l-3.733-2.8z"/><path d="m19.684 40.948.632-1.9c-1.254-.419-2.367-.836-3.355-1.236a10.928 10.928 0 0 1 6.039-1.812v-2a12.932 12.932 0 0 0 -8.165 2.9 27.821 27.821 0 0 1 -3.281-1.731l-1.109 1.665a26.189 26.189 0 0 0 2.846 1.553 12.965 12.965 0 0 0 -3 5.9c-1.044-.61-1.675-1.074-1.69-1.086l-1.201 1.599a23.677 23.677 0 0 0 2.628 1.64c-.008.187-.028.371-.028.56a13.013 13.013 0 0 0 4.4 9.75l1.325-1.5a11 11 0 0 1 -3.7-7.825 22.866 22.866 0 0 0 4.775 1.555l.392-1.96a21.522 21.522 0 0 1 -5.047-1.746 10.981 10.981 0 0 1 3.055-6.022c1.25.535 2.738 1.115 4.484 1.696z"/><path d="m14.393 20.794a34.128 34.128 0 0 0 15.963 5.812l.56 5.6a3 3 0 0 0 -1.916 2.794 2.969 2.969 0 0 0 .3 1.286 13 13 0 1 0 15.66 13.514 37.35 37.35 0 0 0 7.028-2.57 11 11 0 0 1 -3.713 8.025l1.325 1.5a13.013 13.013 0 0 0 4.4-9.755c0-.3-.025-.6-.045-.893a11 11 0 0 0 2.845-2.507l-1.6-1.2a7.941 7.941 0 0 1 -1.584 1.52 12.908 12.908 0 0 0 -1.67-3.905 8.109 8.109 0 0 0 2.886-2.46l-1.664-1.11a6.464 6.464 0 0 1 -2.445 1.955 12.957 12.957 0 0 0 -9.723-4.4v2a10.967 10.967 0 0 1 7.777 3.228 19.326 19.326 0 0 1 -2.942.786l.329 1.972a21.869 21.869 0 0 0 3.958-1.126 10.928 10.928 0 0 1 1.7 4.206 33.768 33.768 0 0 1 -6.883 2.662 13.028 13.028 0 0 0 -10.239-11.442 2.966 2.966 0 0 0 -1.615-4.076l.548-5.482a29.614 29.614 0 0 0 16.954-5.917l-1.172-1.622a27.983 27.983 0 0 1 -15.589 5.611l.426-4.263a16.308 16.308 0 0 0 7.3-2.7l-1.11-1.664a14.633 14.633 0 0 1 -5.992 2.353l1.25-12.447a3.715 3.715 0 1 0 -7.394 0l1.235 12.356a17.134 17.134 0 0 1 -5.984-2.268l-1.109 1.665a19.975 19.975 0 0 0 7.294 2.607l.424 4.243a30.984 30.984 0 0 1 -14.56-5.482zm28.607 28.206a11 11 0 1 1 -11-11 11.013 11.013 0 0 1 11 11zm-12-14a1 1 0 1 1 1 1 1 1 0 0 1 -1-1zm-.707-29.12a1.715 1.715 0 1 1 3.414 0l-1.28 12.8c-.289 0-.575 0-.855-.014zm1.938 14.76-.231 2.31-.232-2.324c.154.006.307.013.463.014z"/><path d="m10 24h2v2h-2z"/><path d="m23 28h2v2h-2z"/><path d="m46 14h2v2h-2z"/><path d="m40 30h2v2h-2z"/><path d="m17 14h2v2h-2z"/></svg>